<?xml version="1.0" standalone="no"?>
<!DOCTYPE svg PUBLIC "-//W3C//DTD SVG 20010904//EN"
 "http://www.w3.org/TR/2001/REC-SVG-20010904/DTD/svg10.dtd">
<svg version="1.0" xmlns="http://www.w3.org/2000/svg"
 width="700.000000pt" height="700.000000pt" viewBox="0 0 700.000000 700.000000"
 preserveAspectRatio="xMidYMid meet">
<metadata>
Created by potrace 1.11, written by Peter Selinger 2001-2013
</metadata>
<g transform="translate(0.000000,700.000000) scale(0.100000,-0.100000)"
fill="#000000" stroke="none">
<path d="M3350 6713 c-808 -44 -1544 -369 -2111 -933 -534 -532 -855 -1201
-935 -1951 -22 -208 -15 -596 14 -784 118 -759 465 -1418 1011 -1920 515 -473
1172 -765 1880 -835 133 -13 469 -13 602 0 562 56 1089 251 1544 571 1006 708
1519 1912 1334 3126 -143 939 -707 1779 -1524 2270 -541 325 -1196 490 -1815
456z m304 -372 c166 -512 245 -1113 207 -1571 l-6 -75 92 -46 c244 -121 430
-336 511 -589 29 -92 30 -97 81 -485 l46 -350 80 -42 c97 -51 389 -169 541
-218 114 -36 455 -125 483 -125 40 -1 42 -12 21 -126 -12 -60 -23 -116 -26
-125 -4 -15 -15 -15 -117 7 -252 54 -540 144 -786 246 -79 32 -145 57 -148 55
-4 -5 60 -462 113 -806 38 -248 181 -1130 190 -1173 l6 -28 -601 0 -601 0 0
426 c0 295 -4 439 -12 465 -15 51 -70 114 -121 141 -56 28 -148 28 -204 0 -51
-27 -106 -90 -121 -141 -8 -26 -12 -170 -12 -465 l0 -426 -595 0 c-363 0 -595
4 -595 9 0 6 23 148 50 318 88 536 158 980 194 1238 47 323 125 919 122 922
-4 5 -164 -102 -271 -182 -208 -154 -418 -344 -596 -537 l-98 -106 -93 81
c-51 44 -94 85 -96 91 -1 6 67 84 152 172 301 312 596 550 923 743 134 79 128
71 138 186 40 431 316 768 730 891 71 21 118 27 226 31 l137 5 7 152 c18 395
-57 904 -201 1355 -18 58 -32 107 -30 108 4 4 228 81 238 82 4 1 23 -48 42
-108z"/>
<path d="M3378 4480 c-281 -48 -517 -267 -589 -548 -10 -41 -19 -78 -19 -82 0
-4 37 8 83 26 118 47 297 99 447 130 l130 27 25 67 c36 95 105 347 105 385 0
7 -128 4 -182 -5z"/>
<path d="M3792 4312 c-13 -59 -43 -165 -67 -237 l-43 -130 26 -35 c91 -122
339 -348 505 -461 88 -61 89 -61 83 -33 -3 16 -19 133 -36 259 -16 127 -37
255 -46 285 -40 133 -135 277 -238 359 -57 45 -142 101 -156 101 -3 0 -15 -48
-28 -108z"/>
<path d="M3335 3745 c-153 -33 -265 -67 -414 -126 -202 -80 -183 -55 -210
-265 -88 -690 -155 -1154 -262 -1817 -32 -202 -59 -369 -59 -372 0 -3 140 -5
310 -5 l310 0 0 313 c0 344 3 368 63 480 36 68 137 166 207 202 61 31 159 55
225 55 217 0 416 -153 479 -369 13 -45 16 -110 16 -368 l0 -313 315 0 315 0
-5 23 c-24 110 -174 1087 -235 1532 -23 165 -43 309 -45 320 -2 12 -29 34 -62
54 -279 164 -586 419 -750 621 -31 38 -55 60 -68 59 -11 0 -69 -11 -130 -24z"/>
</g>
</svg>
