<svg xmlns="http://www.w3.org/2000/svg" width="250" height="250" viewBox="0 0 250 250">
  <g fill="none" fill-rule="evenodd" stroke="#FFF" transform="translate(.31 .473)">
    <circle cx="124.938" cy="124.652" r="119.714" fill="#FF6B12" stroke-width="9.328"/>
    <path stroke-width="9.336" d="M137.941757,212.930461 L137.941757,188.405909 C137.941757,181.187047 132.089714,175.335004 124.870852,175.335004 C117.65199,175.335004 111.799947,181.187047 111.799947,188.405909 L111.799947,212.930461 L79.4338961,212.930461 C82.893865,192.009514 85.3851043,176.318804 86.907614,165.858331 C88.5710401,154.429685 90.8587046,137.286716 93.7706075,114.429425 C94.3770736,97.7757721 108.069058,84.4610918 124.870852,84.4610918 C140.449596,84.4610918 153.354795,95.9078971 155.634493,110.84955 C158.76706,135.110965 161.220223,153.307026 162.993982,165.437734 C164.537184,175.991673 167.059463,191.822582 170.560817,212.930461 L137.941757,212.930461 Z"/>
    <g stroke-width="9.336" transform="translate(48.507 20.522)">
      <path d="M45.378596,12.8306047 C60.5658902,43.9691723 83.3985304,67.338962 107.599666,76.5214636" transform="scale(-1 1) rotate(45 0 -139.985)"/>
      <path d="M7.77223581,80.2700256 C22.95953,111.408593 45.7921703,134.778383 69.9933056,143.960884" transform="scale(1 -1) rotate(-15 -812.719 0)"/>
      <path d="M85.0325855,78.8726077 C100.21988,110.011175 123.05252,133.380965 147.253655,142.563467" transform="scale(-1 1) rotate(-75 0 262.079)"/>
    </g>
  </g>
</svg>
